<mxfile host="app.diagrams.net" agent="Mozilla/5.0 (Windows NT 10.0; Win64; x64) AppleWebKit/537.36 (KHTML, like Gecko) Chrome/127.0.0.0 Safari/537.36 OPR/113.0.0.0" version="24.7.17">
  <diagram name="StrÃ¡nka-1" id="zAGR85YjUnbdr2NyuGKK">
    <mxGraphModel dx="1668" dy="2787" grid="1" gridSize="10" guides="1" tooltips="1" connect="1" arrows="1" fold="1" page="1" pageScale="1" pageWidth="827" pageHeight="1169" math="0" shadow="0">
      <root>
        <mxCell id="0" />
        <mxCell id="1" parent="0" />
        <mxCell id="-j0tvt_6jY57RbtTyGCS-32" style="edgeStyle=orthogonalEdgeStyle;rounded=0;orthogonalLoop=1;jettySize=auto;html=1;entryX=0.5;entryY=1;entryDx=0;entryDy=0;" edge="1" parent="1" source="-j0tvt_6jY57RbtTyGCS-16" target="-j0tvt_6jY57RbtTyGCS-28">
          <mxGeometry relative="1" as="geometry" />
        </mxCell>
        <mxCell id="-j0tvt_6jY57RbtTyGCS-37" style="edgeStyle=orthogonalEdgeStyle;rounded=0;orthogonalLoop=1;jettySize=auto;html=1;entryX=0.5;entryY=0;entryDx=0;entryDy=0;" edge="1" parent="1" source="-j0tvt_6jY57RbtTyGCS-16" target="-j0tvt_6jY57RbtTyGCS-33">
          <mxGeometry relative="1" as="geometry" />
        </mxCell>
        <mxCell id="-j0tvt_6jY57RbtTyGCS-41" style="edgeStyle=orthogonalEdgeStyle;rounded=0;orthogonalLoop=1;jettySize=auto;html=1;" edge="1" parent="1" source="-j0tvt_6jY57RbtTyGCS-16" target="-j0tvt_6jY57RbtTyGCS-40">
          <mxGeometry relative="1" as="geometry" />
        </mxCell>
        <mxCell id="-j0tvt_6jY57RbtTyGCS-16" value="Animals" style="rounded=0;whiteSpace=wrap;html=1;" vertex="1" parent="1">
          <mxGeometry x="360" y="-2110" width="120" height="60" as="geometry" />
        </mxCell>
        <mxCell id="-j0tvt_6jY57RbtTyGCS-31" style="edgeStyle=orthogonalEdgeStyle;rounded=0;orthogonalLoop=1;jettySize=auto;html=1;entryX=0.5;entryY=0;entryDx=0;entryDy=0;" edge="1" parent="1" source="-j0tvt_6jY57RbtTyGCS-17" target="-j0tvt_6jY57RbtTyGCS-28">
          <mxGeometry relative="1" as="geometry" />
        </mxCell>
        <mxCell id="-j0tvt_6jY57RbtTyGCS-17" value="Keeper" style="rounded=0;whiteSpace=wrap;html=1;" vertex="1" parent="1">
          <mxGeometry x="360" y="-2290" width="120" height="60" as="geometry" />
        </mxCell>
        <mxCell id="-j0tvt_6jY57RbtTyGCS-45" style="edgeStyle=orthogonalEdgeStyle;rounded=0;orthogonalLoop=1;jettySize=auto;html=1;entryX=1;entryY=0.5;entryDx=0;entryDy=0;" edge="1" parent="1" source="-j0tvt_6jY57RbtTyGCS-19" target="-j0tvt_6jY57RbtTyGCS-43">
          <mxGeometry relative="1" as="geometry" />
        </mxCell>
        <mxCell id="-j0tvt_6jY57RbtTyGCS-19" value="paddock" style="rounded=0;whiteSpace=wrap;html=1;" vertex="1" parent="1">
          <mxGeometry x="110" y="-2110" width="120" height="60" as="geometry" />
        </mxCell>
        <mxCell id="-j0tvt_6jY57RbtTyGCS-21" value="pavillion" style="rounded=0;whiteSpace=wrap;html=1;" vertex="1" parent="1">
          <mxGeometry x="-150" y="-2110" width="120" height="60" as="geometry" />
        </mxCell>
        <mxCell id="-j0tvt_6jY57RbtTyGCS-39" value="" style="edgeStyle=orthogonalEdgeStyle;rounded=0;orthogonalLoop=1;jettySize=auto;html=1;" edge="1" parent="1" source="-j0tvt_6jY57RbtTyGCS-22" target="-j0tvt_6jY57RbtTyGCS-33">
          <mxGeometry relative="1" as="geometry" />
        </mxCell>
        <mxCell id="-j0tvt_6jY57RbtTyGCS-22" value="food" style="rounded=0;whiteSpace=wrap;html=1;" vertex="1" parent="1">
          <mxGeometry x="360" y="-1931" width="120" height="60" as="geometry" />
        </mxCell>
        <mxCell id="-j0tvt_6jY57RbtTyGCS-28" value="keeps" style="rhombus;whiteSpace=wrap;html=1;" vertex="1" parent="1">
          <mxGeometry x="380" y="-2210" width="80" height="80" as="geometry" />
        </mxCell>
        <mxCell id="-j0tvt_6jY57RbtTyGCS-33" value="eats" style="rhombus;whiteSpace=wrap;html=1;" vertex="1" parent="1">
          <mxGeometry x="380" y="-2030" width="80" height="80" as="geometry" />
        </mxCell>
        <mxCell id="-j0tvt_6jY57RbtTyGCS-49" style="edgeStyle=orthogonalEdgeStyle;rounded=0;orthogonalLoop=1;jettySize=auto;html=1;entryX=1;entryY=0.5;entryDx=0;entryDy=0;" edge="1" parent="1" source="-j0tvt_6jY57RbtTyGCS-40" target="-j0tvt_6jY57RbtTyGCS-19">
          <mxGeometry relative="1" as="geometry" />
        </mxCell>
        <mxCell id="-j0tvt_6jY57RbtTyGCS-40" value="lives in" style="rhombus;whiteSpace=wrap;html=1;" vertex="1" parent="1">
          <mxGeometry x="250" y="-2120" width="80" height="80" as="geometry" />
        </mxCell>
        <mxCell id="-j0tvt_6jY57RbtTyGCS-51" value="" style="edgeStyle=orthogonalEdgeStyle;rounded=0;orthogonalLoop=1;jettySize=auto;html=1;" edge="1" parent="1" source="-j0tvt_6jY57RbtTyGCS-43" target="-j0tvt_6jY57RbtTyGCS-21">
          <mxGeometry relative="1" as="geometry" />
        </mxCell>
        <mxCell id="-j0tvt_6jY57RbtTyGCS-43" value="belongs to" style="rhombus;whiteSpace=wrap;html=1;" vertex="1" parent="1">
          <mxGeometry y="-2120" width="80" height="80" as="geometry" />
        </mxCell>
      </root>
    </mxGraphModel>
  </diagram>
</mxfile>
